<?xml version="1.0" encoding="utf-8"?>
<!-- Generator: Adobe Illustrator 15.1.0, SVG Export Plug-In . SVG Version: 6.00 Build 0)  -->
<!DOCTYPE svg PUBLIC "-//W3C//DTD SVG 1.1//EN" "http://www.w3.org/Graphics/SVG/1.1/DTD/svg11.dtd">
<svg version="1.1" id="Layer_1" xmlns="http://www.w3.org/2000/svg" xmlns:xlink="http://www.w3.org/1999/xlink" x="0px" y="0px"
	 width="412.524px" height="264.664px" viewBox="0 0 412.524 264.664" enable-background="new 0 0 412.524 264.664"
	 xml:space="preserve">
<g id="Layer_1_1_">
	<polygon fill="#ECBC6D" points="-0.313,186.936 207.338,258.67 213.033,1.152 	"/>
	<polygon fill="#C89C5C" points="207.338,258.67 302.624,222.832 302.939,208.567 323.061,215.144 407.309,183.456 213.033,1.152 	
		"/>
	<polygon fill="#ECBC6D" points="290.473,184.071 262.634,171.997 277.088,232.216 289.294,237.387 	"/>
	<polygon fill="#F0CA95" points="350.223,165.345 321.838,154.241 262.634,171.997 290.473,184.071 	"/>
	<polygon opacity="0.15" fill="#3F2E17" enable-background="new    " points="302.939,208.567 302.544,226.421 338.083,220.055 	"/>
</g>
<g id="Layer_2">
	<polygon fill="#B68D55" points="350.973,212.856 340.024,217.035 304.657,206.376 304.657,230.531 291.652,235.492 
		291.652,182.162 350.973,162.121 	"/>
	<polygon fill="#997345" points="340.045,217.085 304.657,206.376 304.657,194.27 340.045,182.162 	"/>
	<path fill="#B68D55" d="M340.045,217.085"/>
</g>
<g id="Layer_3">
	<polygon fill="#C89C5C" points="190.97,190.349 238.396,202.854 208.392,196.602 	"/>
	<polygon fill="#C89C5C" points="141.029,129.791 195.798,144.23 162.247,137.24 158.087,144.23 160.043,137.011 	"/>
	<polygon fill="#C89C5C" points="143.032,80.434 190.458,92.938 160.454,86.687 	"/>
	<path fill="#C89C5C" d="M166.745,136.242"/>
	<polygon fill="#C89C5C" points="137.578,211.257 42.993,186.318 100.935,198.392 108.118,186.318 104.74,198.787 	"/>
	<polygon fill="#8E7451" points="210.187,195.416 232.588,190.349 210.187,196.976 	"/>
	<polygon fill="#8E7451" points="293.668,95.116 233.435,112.914 270.334,104.298 274.909,112.914 272.756,104.016 	"/>
	<polygon fill="#8E7451" points="287.276,142.525 228.486,160.765 265.801,151.145 	"/>
</g>
</svg>
